<?xml version="1.0" encoding="UTF-8"?>
<svg id="Layer_1" data-name="Layer 1" xmlns="http://www.w3.org/2000/svg" viewBox="0 0 833 507">
  <defs>
    <style>
      .cls-1 {
        fill: #fff;
      }

      .cls-2 {
        fill: #fafafa;
      }
    </style>
  </defs>
  <rect x="583.37" y="487.82" width="193.3" height="10.42"/>
  <rect class="cls-1" x="602.98" y="488.51" width="18.99" height="9.17"/>
  <rect class="cls-1" x="641.58" y="488.51" width="18.99" height="9.17"/>
  <rect class="cls-1" x="680.21" y="488.51" width="47.78" height="9.17"/>
  <path d="M588.17,477.53c0,1.66-.33,2.95-1,3.89s-1.58,1.41-2.75,1.41-2.1-.47-2.76-1.42-.99-2.28-.99-3.99,.33-3.02,1-3.97,1.59-1.42,2.77-1.42,2.11,.48,2.76,1.43,.97,2.31,.97,4.08h0Zm-3.78,3.82c.69,0,1.21-.33,1.56-.99s.52-1.65,.52-2.97-.17-2.26-.52-2.93-.85-1.01-1.5-1.01-1.21,.33-1.56,1-.53,1.66-.53,2.96,.17,2.24,.52,2.92,.85,1.02,1.5,1.02h.01Z"/>
  <path d="M602.9,482.54v-8.98h-2.16l.65-1.34h3.04v10.32h-1.53Z"/>
  <path d="M625.37,481.19v1.35h-6.98l3.89-4.66c.48-.58,.84-1.1,1.06-1.54s.33-.84,.33-1.2c0-.52-.15-.92-.46-1.22s-.72-.44-1.26-.44c-.47,0-.87,.15-1.17,.44s-.48,.69-.52,1.17h-1.63c0-.93,.31-1.68,.94-2.24s1.47-.84,2.53-.84,1.8,.26,2.38,.78,.87,1.22,.87,2.11c0,.64-.17,1.28-.5,1.92s-1.04,1.59-2.12,2.82l-1.32,1.54h3.96Z"/>
  <path d="M637.77,479.76h1.62v.09c0,.48,.16,.86,.49,1.15s.77,.43,1.33,.43c.63,0,1.12-.16,1.46-.47s.52-.77,.52-1.36-.18-1.09-.53-1.41-.88-.47-1.58-.47h-.32v-1.37h.3c.62,0,1.08-.13,1.39-.39s.47-.64,.47-1.14c0-.45-.14-.8-.42-1.06s-.66-.39-1.13-.39c-.51,0-.9,.12-1.19,.37s-.44,.59-.45,1.03h-1.53c.05-.89,.35-1.57,.9-2.04s1.33-.71,2.31-.71,1.71,.25,2.27,.75,.84,1.17,.84,2.02c0,.64-.16,1.17-.47,1.58s-.75,.66-1.31,.74c.66,.12,1.16,.41,1.5,.87s.52,1.07,.52,1.83c0,.92-.32,1.66-.97,2.2s-1.52,.81-2.63,.81c-1,0-1.81-.28-2.42-.83s-.93-1.3-.96-2.23h-.01Z"/>
  <path d="M661.32,482.54v-2.11h-4.99l6.06-8.41h.48v7.23h1.27v1.18h-1.27v2.11h-1.55Zm.04-7.04l-2.65,3.74h2.61v-2.71c0-.14,0-.3,.01-.48s.02-.36,.03-.55Z"/>
  <path d="M676.83,480.05c.24,.45,.55,.79,.93,1.02s.8,.36,1.27,.36c.69,0,1.24-.22,1.67-.66s.64-1.02,.64-1.73-.22-1.25-.67-1.68-1.04-.65-1.76-.65c-.44,0-.84,.07-1.21,.22s-.7,.37-.99,.67l-.42-.09,1.29-5.29h4.92v1.37h-3.91l-.61,2.3c.28-.12,.56-.21,.83-.26s.53-.09,.8-.09c.99,0,1.8,.32,2.42,.95s.93,1.46,.93,2.48c0,1.17-.36,2.1-1.09,2.79s-1.7,1.04-2.92,1.04c-.72,0-1.35-.12-1.88-.37s-.99-.63-1.37-1.16l1.12-1.24v.02Z"/>
  <path d="M760.21,485.33v-8.98h-2.16l.65-1.34h3.04v10.32h-1.53Z"/>
  <path d="M776.22,480.31c0,1.66-.33,2.95-1,3.89s-1.58,1.41-2.75,1.41-2.1-.47-2.76-1.42-.99-2.28-.99-3.99,.33-3.02,1-3.97,1.59-1.42,2.77-1.42,2.11,.48,2.76,1.43,.97,2.31,.97,4.08h0Zm-3.78,3.82c.69,0,1.21-.33,1.56-.99s.52-1.65,.52-2.97-.17-2.26-.52-2.93-.85-1.01-1.5-1.01-1.21,.33-1.56,1-.53,1.66-.53,2.96,.17,2.24,.52,2.92,.85,1.02,1.5,1.02h.01Z"/>
  <path d="M782.4,485.33h-1.54v-6.74h1.45v1.1c.31-.47,.66-.81,1.05-1.03s.85-.32,1.38-.32,.96,.11,1.31,.33,.61,.56,.79,1.01c.36-.46,.73-.8,1.13-1.02s.86-.32,1.37-.32c.45,0,.83,.08,1.17,.25s.59,.4,.78,.71c.09,.15,.15,.32,.19,.53s.06,.5,.06,.88v4.63h-1.54v-3.46c0-.91-.1-1.5-.29-1.79s-.53-.43-1.03-.43c-.61,0-1.04,.19-1.3,.58s-.39,1.06-.39,2.03v3.07h-1.56v-3.46c0-.83-.1-1.41-.3-1.74s-.55-.48-1.04-.48c-.3,0-.58,.07-.83,.21s-.45,.33-.6,.57c-.09,.16-.16,.35-.2,.58s-.06,.65-.06,1.26v3.05Z"/>
  <polygon points="808.6 496.91 823.31 471.85 793.9 471.85 808.6 496.91"/>
  <rect x="807.97" y="447.54" width="1.46" height="24.82"/>
  <g>
    <polyline class="cls-1" points="9.7 161.86 46.73 161.86 46.73 173.85 9.7 173.85"/>
    <polygon points="47.11 174.22 9.7 174.22 9.7 173.47 46.36 173.47 46.36 162.24 9.7 162.24 9.7 161.49 47.11 161.49 47.11 174.22"/>
  </g>
  <rect x="42.59" y="158.07" width=".75" height="3.79"/>
  <g>
    <polyline class="cls-1" points="46.73 173.85 55 173.85 55 203.82 53.45 203.82 53.45 242.13 53.45 246.61 55 246.61 55 249.61 9.7 249.61"/>
    <polygon points="55.37 249.99 9.7 249.99 9.7 249.24 54.62 249.24 54.62 246.99 53.08 246.99 53.08 203.45 54.62 203.45 54.62 174.22 46.73 174.22 46.73 173.47 55.37 173.47 55.37 204.2 53.83 204.2 53.83 246.24 55.37 246.24 55.37 249.99"/>
  </g>
  <polygon points="59.86 242.51 53.45 242.51 53.45 241.76 59.11 241.76 59.11 208.71 53.45 208.71 53.45 207.96 59.86 207.96 59.86 242.51"/>
  <path d="M72.59,269.51h-3.72v-28.52h-9.39v-.75h10.14v26.98h2.97v2.29h0Zm-2.97-.75h2.22v-.79h-2.22v.79Z"/>
  <polygon points="69.62 210.26 59.48 210.26 59.48 209.51 68.87 209.51 68.87 193 71.84 193 71.84 190.73 68.87 190.73 68.87 133.76 357.57 133.74 357.57 135.63 356.82 135.63 356.82 134.49 255.97 134.51 69.62 134.51 69.62 189.98 72.59 189.98 72.59 193.75 69.62 193.75 69.62 210.26"/>
  <rect x="72.22" y="190.74" width="163.79" height=".75"/>
  <rect x="72.22" y="192.26" width="40.07" height=".75"/>
  <path d="M174.6,193.01h-61.44v-.75h60.69v-56.26h2.25v56.33h-1.5v.68h0Zm0-1.43h.75v-54.83h-.75v54.83h0Z"/>
  <polygon points="296.85 193.01 236.94 193.01 236.94 192.26 296.1 192.26 296.1 191.11 296.85 191.11 296.85 193.01"/>
  <rect x="297.66" y="192.26" width="59.16" height=".75"/>
  <polygon points="358.35 192.2 356.12 192.2 356.12 191.45 357.6 191.45 357.6 136 356.12 136 356.12 135.25 358.35 135.25 358.35 192.2"/>
  <polygon points="356.12 191.49 236.88 191.49 236.88 136.37 237.63 136.37 237.63 190.74 355.37 190.74 355.37 136 356.85 136 356.85 136.75 356.12 136.75 356.12 191.49"/>
  <polygon points="235.34 193.01 176.19 193.01 176.19 192.26 234.59 192.26 234.59 136.37 235.34 136.37 235.34 193.01"/>
  <rect x="234.97" y="191.5" width="1.88" height=".75"/>
  <polygon points="239.85 195.25 231.59 195.25 231.59 192.63 232.34 192.63 232.34 194.5 239.1 194.5 239.1 192.63 239.85 192.63 239.85 195.25"/>
  <polygon points="179.07 195.25 170.82 195.25 170.82 192.63 171.57 192.63 171.57 194.5 178.32 194.5 178.32 192.63 179.07 192.63 179.07 195.25"/>
  <path d="M112.36,192.63h-.75v-56.63h2.25v56.29h-1.5v.35h0Zm0-1.11h.75v-54.79h-.75v54.79Z"/>
  <polygon points="72.59 195.25 69.25 195.25 69.25 194.5 71.84 194.5 71.84 193.37 72.59 193.37 72.59 195.25"/>
  <path d="M358.35,201.24H71.11v-5.24H358.35v5.24Zm-286.5-.75H357.6v-3.74H71.86v3.74h0Z"/>
  <polygon points="116.84 195.25 108.59 195.25 108.59 192.63 109.34 192.63 109.34 194.5 116.09 194.5 116.09 192.63 116.84 192.63 116.84 195.25"/>
  <polygon points="301.38 195.25 293.1 195.25 293.1 192.63 293.85 192.63 293.85 194.5 300.63 194.5 300.63 192.63 301.38 192.63 301.38 195.25"/>
  <rect x="296.1" y="136.37" width=".75" height="54.74"/>
  <polygon points="298.35 192.25 296.47 192.25 296.47 191.5 297.6 191.5 297.6 136.37 298.35 136.37 298.35 192.25"/>
  <polygon points="360.62 138.28 357.98 138.28 357.98 137.53 359.87 137.53 359.87 133.01 353.85 133.01 353.85 134.12 353.1 134.12 353.1 132.26 360.62 132.26 360.62 138.28"/>
  <path d="M55.37,158.45H9.69v-.75H54.62v-37.46H313.03c4.77-33.47,19.7-61.77,43.17-81.85,21.39-18.3,49.02-28.81,77.79-29.6,29.24-.8,57.75,8.53,80.28,26.28,25.17,19.82,42.23,49.38,49.35,85.47l-.74,.15c-16.59-84.2-79.79-112.49-128.87-111.15-52.3,1.44-109.77,36.36-120.28,111.13l-.04,.32H55.37v37.46Z"/>
  <polygon points="354.66 353.46 351.97 353.46 351.97 352.71 353.91 352.71 353.91 340.76 54.62 340.76 54.62 262.76 9.7 262.76 9.7 262.01 55.37 262.01 55.37 340.01 354.66 340.01 354.66 353.46"/>
  <path d="M470.16,452.51h-63.01l-.11-.11-43.39-43.32v-77.33l.15-.11,43.45-32.86h62.81l44.31,32.97v77.2l-.11,.11-44.1,43.46h0Zm-62.69-.76h62.39l43.77-43.13v-76.51l-43.8-32.59h-62.31l-43.1,32.59v76.65l43.06,42.99h-.01Z"/>
  <path d="M806.15,266.47H71.11v-5.2H806.15v5.2Zm-734.29-.75H805.4v-3.7H71.86v3.7h0Z"/>
  <polygon points="356.12 327.3 68.87 327.3 68.87 271.76 71.84 271.76 71.84 269.49 175.35 269.49 175.35 270.24 72.59 270.24 72.59 272.51 69.62 272.51 69.62 326.55 355.37 326.55 355.37 271.7 298.35 271.7 298.35 324.55 297.6 324.55 297.6 270.95 356.12 270.95 356.12 327.3"/>
  <polygon points="296.85 324.55 296.1 324.55 296.1 271.7 237.63 271.7 237.63 324.55 236.88 324.55 236.88 270.95 296.85 270.95 296.85 324.55"/>
  <polygon points="235.34 324.55 234.59 324.55 234.59 271.7 176.15 271.7 176.15 270.95 235.34 270.95 235.34 324.55"/>
  <rect x="175.37" y="271.81" width=".75" height="52.74"/>
  <polygon points="174.6 324.55 173.85 324.55 173.85 271.7 113.86 271.7 113.86 324.55 113.11 324.55 113.11 270.95 174.6 270.95 174.6 324.55"/>
  <polygon points="112.36 324.55 111.61 324.55 111.61 271.7 72.22 271.7 72.22 270.95 112.36 270.95 112.36 324.55"/>
  <rect x="173.85" y="269.86" width=".75" height="1.47"/>
  <rect x="174.23" y="270.22" width="1.91" height=".75"/>
  <polygon points="179.07 269.86 178.32 269.86 178.32 267.96 171.57 267.96 171.57 269.86 170.82 269.86 170.82 267.21 179.07 267.21 179.07 269.86"/>
  <rect x="176.15" y="269.49" width="59.92" height=".75"/>
  <polygon points="239.85 270.24 236.9 270.24 236.9 269.49 239.1 269.49 239.1 267.96 232.34 267.96 232.34 269.86 231.59 269.86 231.59 267.21 239.85 267.21 239.85 270.24"/>
  <rect x="234.62" y="270.17" width="2.22" height=".75"/>
  <rect x="239.47" y="269.49" width="116.62" height=".75"/>
  <polygon points="360.62 273.93 357.98 273.93 357.98 273.18 359.87 273.18 359.87 267.96 353.85 267.96 353.85 269.86 353.1 269.86 353.1 267.21 360.62 267.21 360.62 273.93"/>
  <polygon points="361.84 327.3 357.6 327.3 357.6 271.78 358.35 271.78 358.35 326.55 361.57 326.55 398.82 298.2 398.82 271.76 479.14 271.76 479.14 298.15 478.39 298.15 478.39 272.51 399.57 272.51 399.57 298.57 399.44 298.68 361.84 327.3"/>
  <polygon points="519.58 327.3 515.33 327.3 471.92 293.5 452.88 293.5 452.88 295.76 425.17 295.76 425.17 293.5 406.03 293.5 399.44 298.68 398.97 298.09 405.76 292.75 425.92 292.75 425.92 295.01 452.13 295.01 452.13 292.75 472.19 292.75 515.59 326.55 518.83 326.55 518.83 270.28 519.58 270.28 519.58 327.3"/>
  <polygon points="412.38 283.04 399.2 283.04 399.2 282.29 411.63 282.29 411.63 272.14 412.38 272.14 412.38 283.04"/>
  <polygon points="412.38 293.13 411.63 293.13 411.63 282.29 422.51 282.29 422.51 283.04 412.38 283.04 412.38 293.13"/>
  <rect x="417.65" y="272.14" width=".75" height="20.99"/>
  <rect x="422.14" y="280.1" width=".75" height="5.11"/>
  <rect x="422.92" y="280.75" width=".75" height="1.48"/>
  <rect x="422.92" y="283" width=".75" height="1.48"/>
  <rect x="423.63" y="272.14" width=".75" height="20.99"/>
  <rect x="426.63" y="295.39" width=".75" height="3.76"/>
  <rect x="449.9" y="295.39" width=".75" height="3.76"/>
  <rect x="452.9" y="272.14" width=".75" height="20.99"/>
  <rect x="454.38" y="280.01" width=".75" height="5.21"/>
  <rect x="453.58" y="282.98" width=".75" height="1.5"/>
  <rect x="453.58" y="280.73" width=".75" height="1.48"/>
  <rect x="454.76" y="282.29" width="24" height=".75"/>
  <rect x="458.83" y="272.14" width=".75" height="20.99"/>
  <rect x="465.64" y="272.14" width=".75" height="20.99"/>
  <polygon points="519.21 273.99 516.62 273.99 516.62 267.21 524.09 267.21 524.09 270.24 521.1 270.24 521.1 269.49 523.34 269.49 523.34 267.96 517.37 267.96 517.37 273.24 519.21 273.24 519.21 273.99"/>
  <polygon points="521.1 270.98 519.63 270.98 519.63 269.48 520.38 269.48 520.38 270.23 521.1 270.23 521.1 270.98"/>
  <path d="M808.35,327.3h-287.24v-2.38h-1.91v-.75h1.91v-53.22h58.48v53.97h-57.73v1.63h285.74v-54.03h-2.98v-2.27h-163.46v-.75h164.21v2.27h2.98v55.53Zm-286.49-3.13h56.98v-52.47h-56.98v52.47Z"/>
  <rect x="523.71" y="269.49" width="116.66" height=".75"/>
  <polygon points="584.09 269.86 583.34 269.86 583.34 267.96 576.6 267.96 576.6 269.41 575.85 269.41 575.85 267.21 584.09 267.21 584.09 269.86"/>
  <polygon points="581.13 324.92 579.22 324.92 579.22 324.17 580.38 324.17 580.38 271 578.87 271 578.87 270.25 581.13 270.25 581.13 324.92"/>
  <rect x="580.75" y="324.17" width="227.23" height=".75"/>
  <polygon points="641.12 271.7 580.75 271.7 580.75 270.95 640.37 270.95 640.37 270.24 641.12 270.24 641.12 271.7"/>
  <polygon points="642.66 324.55 641.91 324.55 641.91 270.99 640.73 270.99 640.73 270.24 642.66 270.24 642.66 324.55"/>
  <rect x="640.37" y="271.33" width=".75" height="53.22"/>
  <polygon points="645.65 269.86 644.9 269.86 644.9 267.96 638.09 267.96 638.09 269.86 637.34 269.86 637.34 267.21 645.65 267.21 645.65 269.86"/>
  <rect x="642.28" y="270.95" width="59.19" height=".75"/>
  <rect x="701.1" y="269.86" width=".75" height="54.68"/>
  <rect x="702.63" y="269.86" width=".75" height="54.68"/>
  <rect x="701.48" y="270.17" width="1.52" height=".75"/>
  <polygon points="706.39 269.86 705.64 269.86 705.64 267.96 698.88 267.96 698.88 269.86 698.13 269.86 698.13 267.21 706.39 267.21 706.39 269.86"/>
  <rect x="703" y="270.95" width="60.72" height=".75"/>
  <rect x="763.34" y="269.86" width=".75" height="54.68"/>
  <polygon points="765.64 324.55 764.89 324.55 764.89 270.91 763.72 270.91 763.72 270.16 765.64 270.16 765.64 324.55"/>
  <rect x="765.27" y="270.95" width="39.73" height=".75"/>
  <polygon points="768.62 269.86 767.87 269.86 767.87 267.96 761.14 267.96 761.14 269.86 760.39 269.86 760.39 267.21 768.62 267.21 768.62 269.86"/>
  <path d="M805.38,269.86h-.75v-2.65h3.73v2.29h-2.98v.36Zm0-1.11h2.23v-.79h-2.23v.79Z"/>
  <path d="M808.35,267.59h-.75v-16.85h10.53v-39.74h-10.53v-15.76h-2.98v-2.25h3.73v17.26h10.53v41.24h-10.53v16.1Zm-2.98-73.09h2.23v-.75h-2.23v.75Z"/>
  <path d="M768.62,195.25h-8.23v-2.24h-53.99v2.24h-8.27v-2.24h-52.47v2.24h-8.3v-2.24h-53.25v2.24h-8.25v-2.24h-51.76v2.24h-7.48v-6.77h2.21l-.1-53.23h.89v-1.5h288.73v56.97h-2.98v2.64h-.75v-.37h-36.01v2.26Zm-7.47-.75h6.73v-2.24h36.76v-2.28h2.98v-55.47h-287.23v1.5h-.89l.1,53.23h-2.22v5.27h5.98v-2.24h53.26v2.24h6.75v-2.24h54.75v2.24h6.8v-2.24h53.97v2.24h6.77v-2.24h55.49v2.24h0Z"/>
  <polygon points="805 191.49 521.12 191.49 521.12 136 807.98 136 807.98 136.75 521.87 136.75 521.87 190.74 805 190.74 805 191.49"/>
  <rect x="763.34" y="136.37" width=".75" height="54.74"/>
  <rect x="764.89" y="136.37" width=".75" height="54.74"/>
  <rect x="701.1" y="136.37" width=".75" height="54.74"/>
  <rect x="702.63" y="136.37" width=".75" height="54.74"/>
  <polygon points="641.12 193.01 637.72 193.01 637.72 192.26 640.37 192.26 640.37 136.37 641.12 136.37 641.12 193.01"/>
  <polygon points="645.27 193.01 641.91 193.01 641.91 136.37 642.66 136.37 642.66 192.26 645.27 192.26 645.27 193.01"/>
  <rect x="640.73" y="191.48" width="1.55" height=".75"/>
  <polygon points="579.59 193.01 576.22 193.01 576.22 192.26 578.84 192.26 578.84 136.37 579.59 136.37 579.59 193.01"/>
  <polygon points="583.72 193.01 580.38 193.01 580.38 136.37 581.13 136.37 581.13 192.26 583.72 192.26 583.72 193.01"/>
  <rect x="579.22" y="191.41" width="1.53" height=".75"/>
  <rect x="518.83" y="188.86" width=".75" height="4.15"/>
  <rect x="519.63" y="190.76" width=".75" height="1.45"/>
  <rect x="519.21" y="191.36" width="1.89" height=".75"/>
  <rect x="521.09" y="192.26" width="2.62" height=".75"/>
  <polygon points="519.21 138.28 516.62 138.28 516.62 132.26 524.09 132.26 524.09 134.13 523.34 134.13 523.34 133.01 517.37 133.01 517.37 137.53 519.21 137.53 519.21 138.28"/>
  <rect x="520" y="135.25" width="1.15" height=".75"/>
  <polygon points="549.57 134.13 548.82 134.13 548.82 130.73 522.82 130.73 520.62 132.9 520.08 132.36 522.51 129.98 549.57 129.98 549.57 134.13"/>
  <polygon points="326.25 133.96 325.5 133.96 325.5 129.81 354.7 129.81 357.31 132.18 356.79 132.74 354.41 130.56 326.25 130.56 326.25 133.96"/>
  <polygon points="326.25 130.73 324.63 130.73 324.63 129.98 325.5 129.98 325.5 129.24 326.25 129.24 326.25 130.73"/>
  <path d="M525.66,353.46h-3.04v-13.45h299.24V120.99l-258.94-.02-.13-.75,259.82,.02v220.52h-296.95v12.7h0Zm-2.29-.75h1.54v-11.95h-1.54v11.95Z"/>
  <polygon points="474.42 463.75 452.13 463.75 452.13 452.13 452.88 452.13 452.88 463 474.12 463 524.91 412.77 524.91 353.09 525.66 353.09 525.66 413.08 525.56 413.2 474.42 463.75"/>
  <polygon points="459.62 463.37 458.87 463.37 458.87 462.25 455.88 462.25 455.88 463.37 455.13 463.37 455.13 461.5 459.62 461.5 459.62 463.37"/>
  <polygon points="425.12 463.75 402.63 463.75 402.63 463 424.37 463 424.37 452.13 425.12 452.13 425.12 463.75"/>
  <polygon points="415.34 463.37 414.59 463.37 414.59 462.25 403.4 462.25 403.4 461.5 415.34 461.5 415.34 463.37"/>
  <polygon points="422.09 463.37 421.34 463.37 421.34 462.25 418.4 462.25 418.4 463.37 417.65 463.37 417.65 461.5 422.09 461.5 422.09 463.37"/>
  <polygon points="422.89 493.02 403.38 493.02 403.38 463.37 404.13 463.37 404.13 492.27 422.14 492.27 422.14 463.37 422.89 463.37 422.89 493.02"/>
  <rect x="409.38" y="463.37" width=".75" height="29.28"/>
  <rect x="416.13" y="463.37" width=".75" height="29.28"/>
  <polygon points="420.6 480.25 419.85 480.25 419.85 478.75 403.75 478.75 403.75 478 419.85 478 419.85 475.8 420.6 475.8 420.6 480.25"/>
  <polygon points="422.89 479.5 420.23 479.5 420.23 478.75 422.14 478.75 422.14 478.53 419.97 476.53 420.48 475.98 422.89 478.21 422.89 479.5"/>
  <polygon points="449.73 498.26 427.38 498.26 422.23 492.91 422.77 492.39 427.7 497.51 449.42 497.51 454.38 492.49 454.38 463.37 455.13 463.37 455.13 492.8 449.73 498.26"/>
  <rect x="424.75" y="461.5" width="27.75" height=".75"/>
  <rect x="424.75" y="457.01" width="27.75" height=".75"/>
  <polygon points="402.84 463.64 351.63 413.31 351.63 340.39 352.38 340.39 352.38 413 403.37 463.1 402.84 463.64"/>
  <polygon points="354.66 360.24 352 360.24 352 359.49 353.91 359.49 353.91 356.51 352 356.51 352 355.76 354.66 355.76 354.66 360.24"/>
  <rect x="352" y="363.26" width="12.03" height=".75"/>
  <polygon points="364.04 390.99 352 390.99 352 390.24 353.88 390.24 353.88 363.63 354.63 363.63 354.63 390.24 364.04 390.24 364.04 390.99"/>
  <rect x="361.03" y="363.63" width=".75" height="26.98"/>
  <polygon points="525.28 360.24 522.63 360.24 522.63 355.76 525.28 355.76 525.28 356.51 523.38 356.51 523.38 359.49 525.28 359.49 525.28 360.24"/>
  <rect x="514" y="363.26" width="11.29" height=".75"/>
  <polygon points="525.28 390.99 514 390.99 514 390.24 522.63 390.24 522.63 363.63 523.38 363.63 523.38 390.24 525.28 390.24 525.28 390.99"/>
  <rect x="515.5" y="363.63" width=".75" height="26.98"/>
  <polygon points="525.28 398.49 522.63 398.49 522.63 394.01 525.28 394.01 525.28 394.76 523.38 394.76 523.38 397.74 525.28 397.74 525.28 398.49"/>
  <polygon points="523.38 412.73 522.63 412.73 522.63 400.74 525.28 400.74 525.28 401.49 523.38 401.49 523.38 412.73"/>
  <polygon points="463.38 463.37 462.63 463.37 462.63 461.5 473.81 461.5 473.81 462.25 463.38 462.25 463.38 463.37"/>
  <polygon points="467.9 493.02 461.13 493.02 461.13 463.37 461.88 463.37 461.88 492.27 467.15 492.27 467.15 463.37 467.9 463.37 467.9 493.02"/>
  <polygon points="474.65 493.02 454.76 493.02 454.76 492.27 473.9 492.27 473.9 463.37 474.65 463.37 474.65 493.02"/>
  <polygon points="457.35 480.23 456.6 480.23 456.6 479.5 454.76 479.5 454.76 478.75 456.6 478.75 456.6 475.73 457.35 475.73 457.35 480.23"/>
  <polygon points="455.01 478.65 454.5 478.1 456.81 475.92 457.33 476.47 455.01 478.65"/>
  <rect x="456.98" y="478" width="17.29" height=".75"/>
  <polygon points="354.63 398.49 352 398.49 352 397.74 353.88 397.74 353.88 394.8 352 394.8 352 394.05 354.63 394.05 354.63 398.49"/>
  <polygon points="354.67 412.73 353.92 412.73 353.92 401.49 352 401.49 352 400.74 354.67 400.74 354.67 412.73"/>
  <path d="M806.09,201.24h-287.27v-5.24h287.27v5.24Zm-286.52-.75h285.77v-3.74h-285.77v3.74Z"/>
  <polygon points="706.02 193.01 702.63 193.01 702.63 192.21 701.85 192.21 701.85 193.01 698.5 193.01 698.5 192.26 701.1 192.26 701.1 191.46 703.38 191.46 703.38 192.26 706.02 192.26 706.02 193.01"/>
  <polygon points="768.23 193.01 764.89 193.01 764.89 192.28 764.09 192.28 764.09 193.01 760.76 193.01 760.76 192.26 763.34 192.26 763.34 191.53 765.64 191.53 765.64 192.26 768.23 192.26 768.23 193.01"/>
  <rect x="437.14" y="132.23" width=".75" height="3.73"/>
  <rect x="435.6" y="133.76" width="3.75" height=".75"/>
  <path d="M437.5,150.53c-8.97,0-16.28-7.3-16.28-16.27s7.3-16.28,16.28-16.28,16.28,7.3,16.28,16.28-7.3,16.27-16.28,16.27Zm0-31.55c-8.42,0-15.28,6.85-15.28,15.28s6.85,15.27,15.28,15.27,15.28-6.85,15.28-15.27-6.85-15.28-15.28-15.28h0Z"/>
  <path d="M437.5,152.83c-10.14,0-18.4-8.33-18.4-18.58s8.25-18.58,18.4-18.58,18.4,8.33,18.4,18.58-8.25,18.58-18.4,18.58Zm0-36.15c-9.59,0-17.4,7.88-17.4,17.58s7.8,17.58,17.4,17.58,17.4-7.88,17.4-17.58-7.81-17.58-17.4-17.58h0Z"/>
  <path d="M552.59,130.73h-3.75l-.03-.34c-6.81-74.29-63.76-107.25-113.83-106.49-49.34,.78-104.42,34.43-108.74,106.48l-.75-.04c1.96-32.65,14.56-60.17,36.43-79.57,19.59-17.37,45.53-27.18,73.05-27.61,27.86-.42,54.47,8.79,74.86,25.97,22.81,19.22,36.53,47.17,39.69,80.86h3.06v.75h.01Z"/>
  <rect x="326.14" y="87.03" width=".75" height="13" transform="translate(104.48 350.54) rotate(-65.16)"/>
  <rect x="336.93" y="64.46" width=".75" height="12.81" transform="translate(105.77 326.18) rotate(-59.66)"/>
  <rect x="319.25" y="81.68" width="24.99" height=".75" transform="translate(116.25 347.29) rotate(-64.8)"/>
  <rect x="363.94" y="33.97" width=".75" height="13.11" transform="translate(54.25 236.04) rotate(-38.58)"/>
  <rect x="362.1" y="33.57" width="25.08" height=".75" transform="translate(39.47 204.74) rotate(-32.18)"/>
  <rect x="385.18" y="20.72" width=".75" height="13.84" transform="translate(27.72 173.82) rotate(-26.32)"/>
  <rect x="424.39" y="9.54" width=".75" height="14.44" transform="translate(.65 45.68) rotate(-6.16)"/>
  <rect x="436.78" y="4.06" width=".75" height="24.8" transform="translate(412.38 453.22) rotate(-88.91)"/>
  <rect x="442.13" y="16.51" width="14.83" height=".75" transform="translate(424.5 466.05) rotate(-88.96)"/>
  <rect x="481.82" y="27.3" width="14.2" height=".75" transform="translate(252.48 456.52) rotate(-64.37)"/>
  <polygon points="510.13 40.87 489 27.41 489.4 26.78 510.52 40.24 510.13 40.87"/>
  <polygon points="506.17 46.64 505.58 46.2 513.7 35.14 514.29 35.59 506.17 46.64"/>
  <rect x="530.65" y="70.94" width="13.63" height=".75" transform="translate(44.98 298.06) rotate(-32.28)"/>
  <rect x="542.89" y="69.54" width=".75" height="25.42" transform="translate(17.82 242.9) rotate(-25.61)"/>
  <rect x="541.37" y="93.24" width="13.82" height=".75" transform="translate(4.9 212.4) rotate(-22.02)"/>
  <rect x="595.21" y="120.61" width="1" height="13.52"/>
  <rect x="618.46" y="120.61" width="1" height="13.52"/>
  <g>
    <rect x="596.09" y="125.48" width="22.43" height="2.23"/>
    <rect class="cls-2" x="596.21" y="126.24" width=".65" height=".76"/>
    <rect class="cls-2" x="617.82" y="126.24" width=".65" height=".76"/>
  </g>
  <rect x="255.38" y="120.61" width="1" height="13.52"/>
  <rect x="278.63" y="120.61" width="1" height="13.52"/>
  <g>
    <rect x="256.26" y="125.48" width="22.43" height="2.23"/>
    <rect class="cls-2" x="256.38" y="126.24" width=".65" height=".76"/>
    <rect class="cls-2" x="277.97" y="126.24" width=".65" height=".76"/>
  </g>
  <rect x="193.79" y="120.61" width="1" height="13.52"/>
  <rect x="217.04" y="120.61" width="1" height="13.52"/>
  <g>
    <rect x="194.67" y="125.48" width="22.43" height="2.23"/>
    <rect class="cls-2" x="194.79" y="126.24" width=".65" height=".76"/>
    <rect class="cls-2" x="216.4" y="126.24" width=".65" height=".76"/>
  </g>
  <rect x="132.45" y="120.61" width="1" height="13.52"/>
  <rect x="155.7" y="120.61" width="1" height="13.52"/>
  <rect x="133.34" y="125.48" width="22.43" height="2.23"/>
  <rect x="73.15" y="120.61" width="1" height="13.52"/>
  <rect x="96.4" y="120.61" width="1" height="13.52"/>
  <rect x="74.03" y="125.48" width="22.43" height="2.23"/>
  <rect x="656.59" y="120.61" width="1" height="13.52"/>
  <g>
    <rect x="679.84" y="120.61" width="1" height="13.52"/>
    <g>
      <rect x="657.48" y="125.48" width="22.43" height="2.23"/>
      <rect class="cls-2" x="657.59" y="126.24" width=".65" height=".76"/>
      <rect class="cls-2" x="679.21" y="126.24" width=".65" height=".76"/>
    </g>
  </g>
  <rect x="718.69" y="120.61" width="1" height="13.52"/>
  <rect x="741.94" y="120.61" width="1" height="13.52"/>
  <rect x="719.58" y="125.48" width="22.43" height="2.23"/>
  <rect x="777.9" y="120.61" width="1" height="13.52"/>
  <rect x="801.15" y="120.61" width="1" height="13.52"/>
  <rect x="778.77" y="125.48" width="22.43" height="2.23"/>
  <polygon points="360.62 195.25 353.1 195.25 353.1 192.63 353.85 192.63 353.85 194.5 359.87 194.5 359.87 189.23 357.98 189.23 357.98 188.48 360.62 188.48 360.62 195.25"/>
  <polygon points="116.84 269.86 116.09 269.86 116.09 267.96 109.34 267.96 109.34 269.86 108.59 269.86 108.59 267.21 116.84 267.21 116.84 269.86"/>
  <rect x="111.65" y="270.17" width="2.22" height=".75"/>
  <polygon points="301.38 269.86 300.63 269.86 300.63 267.96 293.85 267.96 293.85 269.86 293.1 269.86 293.1 267.21 301.38 267.21 301.38 269.86"/>
  <rect x="296.13" y="270.17" width="2.25" height=".75"/>
  <polygon points="356.9 271.7 355.73 271.7 355.73 270.95 356.15 270.95 356.15 270.2 358.4 270.2 358.4 270.95 356.9 270.95 356.9 271.7"/>
  <rect x="356.94" y="269.48" width=".75" height="1.14"/>
  <polygon points="66.95 163.88 46.73 163.88 46.73 163.13 66.2 163.13 66.2 125.72 73.7 125.72 73.7 126.47 66.95 126.47 66.95 163.88"/>
  <rect x="69.25" y="136" width="286.49" height=".75"/>
</svg>